{"title":"Selena Gomez &amp; The Scene - Round &amp; Round [Music Video] 7","uid":10249981,"size":35186939,"categoryP":"video","categoryS":"music_videos","magnet":"?xt=urn:btih:dbb96817d74c2b236ed67551c5924510d3583838&amp;dn=Selena+Gomez+%26amp%3B+The+Scene+-+Round+%26amp%3B+Round+%5BMusic+Video%5D+7&amp;tr=udp%3A%2F%2Ftracker.openbittorrent.com%3A80&amp;tr=udp%3A%2F%2Fopen.demonii.com%3A1337&amp;tr=udp%3A%2F%2Ftracker.coppersurfer.tk%3A6969&amp;tr=udp%3A%2F%2Fexodus.desync.com%3A6969","seeders":0,"leechers":0,"uploader":"Sbyky","files":1,"time":1401337303,"description":"\n\nGeneral\nComplete name                            : Selena Gomez &amp; The Scene - Round &amp; Round [Music Video] 720p [Sbyky].MP4\nFormat                                   : MPEG-4\nFormat profile                           : Base Media\nCodec ID                                 : isom\nFile size                                : 33.6 MiB\nDuration                                 : 3mn 25s\nOverall bit rate mode                    : Variable\nOverall bit rate                         : 1 371 Kbps\nEncoded date                             : UTC 2014-03-07 20:44:32\nTagged date                              : UTC 2014-03-07 20:44:32\n\nVideo\nID                                       : 1\nFormat                                   : AVC\nFormat/Info                              : Advanced Video Codec\nFormat profile                           : &lt;a class=&quot;__cf_email__&quot; href=&quot;/cdn-cgi/l/email-protection&quot; data-cfemail=&quot;fcb19d9592bcb0cfd2cd&quot;&gt;[email&amp;#160;protected]&lt;/a&gt;&lt;script data-cfhash='f9e31' type=&quot;text/javascript&quot;&gt;\n/* &lt;![CDATA[ */!function(){try{var t=&quot;currentScript&quot;in document?document.currentScript:function(){for(var t=document.getElementsByTagName(&quot;script&quot;),e=t.length;e--;)if(t[e].getAttribute(&quot;data-cfhash&quot;))return t[e]}();if(t&amp;&amp;t.previousSibling){var e,r,n,i,c=t.previousSibling,a=c.getAttribute(&quot;data-cfemail&quot;);if(a){for(e=&quot;&quot;,r=parseInt(a.substr(0,2),16),n=2;a.length-n;n+=2)i=parseInt(a.substr(n,2),16)^r,e+=String.fromCharCode(i);e=document.createTextNode(e),c.parentNode.replaceChild(e,c)}t.parentNode.removeChild(t);}}catch(u){}}()/* ]]&gt; */&lt;/script&gt;\nFormat settings, CABAC                   : Yes\nFormat settings, ReFrames                : 3 frames\nCodec ID                                 : avc1\nCodec ID/Info                            : Advanced Video Coding\nDuration                                 : 3mn 25s\nDuration_LastFrame                       : -40ms\nBit rate                                 : 1 242 Kbps\nWidth                                    : 1 280 pixels\nHeight                                   : 720 pixels\nDisplay aspect ratio                     : 16:9\nFrame rate mode                          : Constant\nFrame rate                               : 23.976 fps\nColor space                              : YUV\nChroma subsampling                       : 4:2:0\nBit depth                                : 8 bits\nScan type                                : Progressive\nBits/(Pixel*Frame)                       : 0.056\nStream size                              : 30.4 MiB (91%)\nEncoded date                             : UTC 2014-03-07 20:44:32\nTagged date                              : UTC 2014-03-07 20:44:32\n\nAudio\nID                                       : 2\nFormat                                   : AAC\nFormat/Info                              : Advanced Audio Codec\nFormat profile                           : LC\nCodec ID                                 : 40\nDuration                                 : 3mn 25s\nBit rate mode                            : Variable\nBit rate                                 : 126 Kbps\nChannel(s)                               : 2 channels\nChannel positions                        : Front: L R\nSampling rate                            : 44.1 KHz\nCompression mode                         : Lossy\nStream size                              : 3.07 MiB (9%)\nEncoded date                             : UTC 2014-03-07 20:43:58\nTagged date                              : UTC 2014-03-07 20:43:58\n\nShared By Sbyky\n","torrent":{"xt":"urn:btih:dbb96817d74c2b236ed67551c5924510d3583838","amp;dn":"Selena+Gomez+%26amp%3B+The+Scene+-+Round+%26amp%3B+Round+%5BMusic+Video%5D+7","amp;tr":["udp%3A%2F%2Ftracker.openbittorrent.com%3A80","udp%3A%2F%2Fopen.demonii.com%3A1337","udp%3A%2F%2Ftracker.coppersurfer.tk%3A6969","udp%3A%2F%2Fexodus.desync.com%3A6969"],"infoHash":"dbb96817d74c2b236ed67551c5924510d3583838","infoHashBuffer":{"type":"Buffer","data":[219,185,104,23,215,76,43,35,110,214,117,81,197,146,69,16,211,88,56,56]},"announce":[],"urlList":[]}}